<?xml version="1.0" encoding="UTF-8"?>
<svg version="1.1" xmlns="http://www.w3.org/2000/svg" width="1200" height="1201">
<path d="M0 0 C1.14065918 0.19867676 2.28131836 0.39735352 3.45654297 0.60205078 C28.98457727 5.18207037 53.27664705 12.54516259 77 23 C77.75571289 23.32967773 78.51142578 23.65935547 79.29003906 23.99902344 C122.05249063 42.8114463 163.91744381 74.55659175 192 112 C192.92207937 113.18314798 193.84534896 114.36536892 194.76953125 115.546875 C243.99841962 179.11085729 266.71730814 260.97190019 257.40234375 340.86865234 C247.18233167 420.40862496 247.18233167 420.40862496 227.890625 437.9140625 C221.00049789 440.50251566 213.25468942 436.03865719 206.875 433.3125 C176.16189281 420.67408674 143.16825714 414.08748384 110 413 C109.34 412.97808594 108.68 412.95617187 108 412.93359375 C93.94268161 412.53423811 79.99383303 413.77720632 66 415 C71.34601943 419.90590384 76.7181466 424.46454073 82.75 428.5 C83.4419043 428.96792969 84.13380859 429.43585938 84.84667969 429.91796875 C91.12005789 434.13293984 97.47210457 438.18933459 104 442 C104.6894873 442.40686035 105.37897461 442.8137207 106.08935547 443.23291016 C131.0228176 457.83378112 157.96207811 468.286251 186.21411133 474.31591797 C190.6381351 475.286439 194.30646398 476.22070557 198 479 C199.61944009 482.23888018 199.54348031 485.49667933 199 489 C197.46948946 491.59328285 196.12601133 493.52168446 194.1875 495.75 C193.44741699 496.64452881 193.44741699 496.64452881 192.69238281 497.55712891 C188.45686562 502.62121747 184.01091154 507.50494009 179.49609375 512.3203125 C177.38088079 514.5911045 175.33278584 516.89529043 173.3125 519.25 C167.38537011 526.06619938 160.86198527 532.14334817 154 538 C152.63294922 539.20076172 152.63294922 539.20076172 151.23828125 540.42578125 C99.06492819 585.92726407 30.09057434 612.08170548 -39 614 C-39.73508789 614.02191406 -40.47017578 614.04382813 -41.22753906 614.06640625 C-121.34015765 616.09714436 -198.00925001 586.78021055 -257 533 C-258.728887 531.45801971 -260.45805194 529.91635099 -262.1875 528.375 C-268.93628221 522.29055104 -275.10367098 515.90940485 -281 509 C-281.64340332 508.25194092 -281.64340332 508.25194092 -282.29980469 507.48876953 C-285.56827153 503.68762176 -288.79357573 499.85363779 -292 496 C-292.59941406 495.30390625 -293.19882812 494.6078125 -293.81640625 493.890625 C-296.18738159 490.94548184 -297.33030936 488.5412085 -297.5625 484.8125 C-296.91998051 480.45764571 -296.3727715 479.65280386 -293 477 C-290.0234375 476.015625 -290.0234375 476.015625 -286.375 475.25 C-260.77694804 469.4080833 -236.16866785 460.33382466 -213 448 C-212.29987793 447.63326172 -211.59975586 447.26652344 -210.87841797 446.88867188 C-194.47713208 438.26294555 -177.19818781 428.19818781 -164 415 C-213.95482005 410.63490301 -262.89615022 415.36219481 -309.5625 434.87890625 C-310.24691162 435.16443359 -310.93132324 435.44996094 -311.63647461 435.74414062 C-313.41307465 436.49900985 -315.17787817 437.28148335 -316.94140625 438.06640625 C-320.53899833 439.16452184 -322.43860104 439.20667427 -326 438 C-330.70004511 433.8044795 -332.56423096 427.36128667 -334.8125 421.625 C-335.46835083 419.96247192 -335.46835083 419.96247192 -336.13745117 418.26635742 C-348.15565503 387.26322635 -356.32183233 353.3573722 -357 320 C-357.03867187 318.49904785 -357.03867187 318.49904785 -357.078125 316.96777344 C-358.77952186 241.95743945 -336.35144915 168.09743596 -288 110 C-287.31035156 109.12601562 -286.62070312 108.25203125 -285.91015625 107.3515625 C-279.42781367 99.34581689 -272.26007116 92.04372896 -265 84.75 C-264.49170654 84.23653015 -263.98341309 83.7230603 -263.4597168 83.19403076 C-256.64674665 76.32648884 -249.61660325 69.98645312 -242 64 C-241.39349609 63.5138623 -240.78699219 63.02772461 -240.16210938 62.52685547 C-226.61411252 51.69271836 -212.06207809 42.56449814 -197 34 C-196.39784668 33.65227539 -195.79569336 33.30455078 -195.17529297 32.94628906 C-161.18307007 13.41052878 -121.77700153 2.381355 -83 -2 C-82.25435791 -2.0942627 -81.50871582 -2.18852539 -80.74047852 -2.28564453 C-54.56801931 -5.19514134 -25.91381291 -4.58757337 0 0 Z M-251.375 95.6875 C-252.02895752 96.29295654 -252.68291504 96.89841309 -253.35668945 97.5222168 C-257.87907182 101.77386681 -261.96932925 106.28434336 -266 111 C-266.94850848 112.07209625 -267.8989147 113.1425177 -268.8515625 114.2109375 C-282.10953207 129.25145148 -293.10991647 145.58319558 -303 163 C-303.4340918 163.75829102 -303.86818359 164.51658203 -304.31542969 165.29785156 C-341.59407658 231.05841623 -348.91511313 310.23946677 -329.78125 382.75390625 C-327.86710162 389.66721646 -325.63654295 396.46481428 -323.3125 403.25 C-322.93198486 404.3635083 -322.55146973 405.4770166 -322.15942383 406.62426758 C-320.52323094 411.2604477 -319.14509832 415.16475998 -316 419 C-315.41436279 418.764021 -314.82872559 418.52804199 -314.2253418 418.28491211 C-239.32015422 388.40826099 -154.16026757 388.1904226 -79.59375 419.67578125 C-62.74507559 426.93578916 -62.74507559 426.93578916 -55.12890625 431.46484375 C-51.19772843 433.70798254 -51.19772843 433.70798254 -46.75390625 433.59765625 C-45.84511719 433.07042969 -44.93632813 432.54320312 -44 432 C-42.89527344 431.46246094 -41.79054688 430.92492187 -40.65234375 430.37109375 C-39.41333604 429.72796011 -38.17509874 429.0833408 -36.9375 428.4375 C33.66420333 392.61198968 118.11654491 385.97375588 193.55859375 410.05859375 C202.10805207 412.85666798 210.59339292 415.79795509 219 419 C230.23755611 391.17208739 237.76259027 362.90412134 241 333 C241.19722656 331.27330078 241.19722656 331.27330078 241.3984375 329.51171875 C241.72140339 326.00710236 241.90014816 322.51648771 242 319 C242.04084717 317.59065186 242.04084717 317.59065186 242.08251953 316.15283203 C243.16270781 271.47108175 235.22735164 227.87843768 217 187 C216.63261719 186.17032715 216.26523437 185.3406543 215.88671875 184.48583984 C202.07351498 153.57086479 182.28990576 126.34575543 159.3125 101.625 C158.70688232 100.97080078 158.10126465 100.31660156 157.47729492 99.64257812 C153.22560306 95.12065406 148.71543372 91.0304802 144 87 C142.92790375 86.05149152 141.8574823 85.1010853 140.7890625 84.1484375 C125.74934271 70.89116799 109.41796332 59.88652438 92 50 C91.23107422 49.56059082 90.46214844 49.12118164 89.66992188 48.66845703 C61.43063205 32.6916009 29.90217257 22.49175014 -2 17 C-3.36970947 16.75443359 -3.36970947 16.75443359 -4.76708984 16.50390625 C-94.89160663 0.98344152 -185.59270026 34.49023493 -251.375 95.6875 Z M-146.125 422.875 C-147.09308594 423.70644531 -148.06117188 424.53789062 -149.05859375 425.39453125 C-150.88678115 427.01392168 -152.71272571 428.63585237 -154.53515625 430.26171875 C-169.98080132 443.66007655 -187.81205466 454.71785121 -206 464 C-206.92329102 464.4738916 -207.84658203 464.9477832 -208.79785156 465.43603516 C-229.4157871 475.92001641 -250.70250269 483.89655851 -273 490 C-270.51110316 494.66006218 -267.23440423 498.20347058 -263.625 502 C-263.0064917 502.65500488 -262.3879834 503.31000977 -261.75073242 503.98486328 C-259.84169981 505.99761862 -257.92326043 508.00084098 -256 510 C-255.4229834 510.60038086 -254.8459668 511.20076172 -254.25146484 511.81933594 C-247.22426747 519.08997915 -240.00159763 525.79363261 -232 532 C-230.73416061 533.00624078 -229.46855135 534.01277109 -228.203125 535.01953125 C-179.8940805 573.08813324 -119.53879952 595.22909929 -58 597 C-57.32291992 597.02191406 -56.64583984 597.04382813 -55.94824219 597.06640625 C13.43324981 599.01989734 81.49428964 574.7941627 135 531 C135.55333008 530.55108398 136.10666016 530.10216797 136.67675781 529.63964844 C150.59853325 518.28305144 164.48120098 505.63804899 175 491 C172.28758796 489.1917253 170.61540171 488.47537208 167.5546875 487.625 C166.65564697 487.36759033 165.75660645 487.11018066 164.83032227 486.8449707 C163.85506592 486.56613037 162.87980957 486.28729004 161.875 486 C121.97998619 474.15789153 81.83076119 454.09871948 51.23828125 425.41015625 C50.31402344 424.57355469 49.38976562 423.73695313 48.4375 422.875 C47.63183594 422.10929687 46.82617188 421.34359375 45.99609375 420.5546875 C38.68679783 416.76185859 28.91354938 420.81603107 21.4375 422.9375 C20.35758789 423.24324951 19.27767578 423.54899902 18.16503906 423.86401367 C-2.06269501 429.78793377 -23.76589797 437.84121985 -41.5859375 449.2890625 C-45.6040602 451.30272125 -48.64575512 451.9374606 -53 451 C-56.60919046 449.5229345 -59.93100151 447.62150876 -63.3125 445.6875 C-83.55873814 434.65919502 -104.73320944 426.84941182 -127 421 C-127.73814941 420.79391113 -128.47629883 420.58782227 -129.23681641 420.37548828 C-136.39745147 418.43583199 -140.40133958 417.81647443 -146.125 422.875 Z " fill="#FFFFFF" transform="translate(649,46)"/>
<path d="M0 0 C2.65698242 1.28222656 2.65698242 1.28222656 5 4 C5.7199744 7.99179129 5.57993936 11.9401152 5.48828125 15.984375 C5.48120651 17.15510559 5.47413177 18.32583618 5.46684265 19.53204346 C5.43884981 23.27201173 5.37609721 27.01048407 5.3125 30.75 C5.28742368 33.28513463 5.26460936 35.82029273 5.24414062 38.35546875 C5.18900684 44.57082307 5.10532977 50.78530467 5 57 C6.27117676 56.98428955 7.54235352 56.9685791 8.85205078 56.95239258 C13.58196644 56.8979675 18.31185456 56.86360408 23.04199219 56.83520508 C25.08663594 56.82014712 27.13124755 56.79969643 29.17578125 56.77368164 C32.11987252 56.73716689 35.06353557 56.72024349 38.0078125 56.70703125 C38.9174173 56.69154739 39.82702209 56.67606354 40.76419067 56.66011047 C45.92489919 56.65875142 49.55148313 57.06832671 54 60 C55.56471233 63.12942465 55.69701958 66.61082223 55 70 C53.62670898 72.10498047 53.62670898 72.10498047 51 74 C47.51559333 74.56858986 44.06897696 74.46440552 40.546875 74.390625 C39.53151672 74.38496521 38.51615845 74.37930542 37.47003174 74.37347412 C34.22953999 74.35109753 30.9901571 74.30089755 27.75 74.25 C25.55209931 74.22993671 23.35418128 74.21168565 21.15625 74.1953125 C15.7704555 74.15122871 10.38530697 74.08430373 5 74 C5.10934263 81.408591 5.22227463 88.81712071 5.33933926 96.22559357 C5.39364058 99.66860246 5.44687116 103.11161975 5.49731445 106.5546875 C5.69684702 120.11862386 5.9196555 133.67909557 6.4609375 147.234375 C6.49646225 148.15915649 6.531987 149.08393799 6.56858826 150.03674316 C8.86980264 202.85403008 26.9554558 254.65914688 57 298 C64.12104792 297.33240176 70.99716993 296.05632794 78 294.625 C97.16170477 290.83774541 116.46790281 288.49137351 136 288 C136.78665039 287.97808594 137.57330078 287.95617187 138.38378906 287.93359375 C172.6399396 287.10979855 206.83864833 291.49656266 240 300 C241.16692383 300.29777344 242.33384766 300.59554688 243.53613281 300.90234375 C244.69209961 301.22332031 245.84806641 301.54429687 247.0390625 301.875 C248.08529785 302.16117187 249.1315332 302.44734375 250.20947266 302.7421875 C253.58853271 304.26527738 254.99614488 305.91369738 257 309 C257.62195931 312.73175586 257.25419769 314.49160462 255.5625 317.875 C252.48830567 320.42433188 250.59358013 320.36842431 246.69213867 320.27148438 C241.44673154 319.74251977 236.44426751 318.20902894 231.375 316.8125 C157.68143687 297.57471452 78.66659102 304.11717371 9.1328125 335.15234375 C8.3996582 335.4757373 7.66650391 335.79913086 6.91113281 336.13232422 C5.41503046 336.8115715 3.94701027 337.5527376 2.4921875 338.31640625 C-4.44003976 340.21787924 -10.83376838 337.53576112 -17 334.5 C-56.10853002 316.32840167 -99.96161608 307.18048139 -143 306 C-143.70624512 305.97808594 -144.41249023 305.95617187 -145.14013672 305.93359375 C-177.71077089 305.05350456 -211.56691825 308.86038999 -242.86279297 318.17089844 C-248.1897643 319.72568537 -253.43492886 320.89029538 -259 320 C-262.06862356 317.45528778 -262.84823663 315.91058019 -263.5 312 C-262.8383363 308.03001778 -261.94287267 306.79616054 -259 304 C-255.39632804 302.4379402 -251.6731515 301.47722098 -247.875 300.5 C-246.76697021 300.20448242 -245.65894043 299.90896484 -244.51733398 299.60449219 C-217.87756137 292.6776635 -190.52451912 288.69726458 -163 288 C-162.2147998 287.97808594 -161.42959961 287.95617187 -160.62060547 287.93359375 C-130.24506074 287.20326609 -99.56369021 290.39833061 -70.02124023 297.53149414 C-66.88212325 298.01827923 -64.97863954 298.0915334 -62 297 C-60.26652336 295.20449788 -60.26652336 295.20449788 -58.94921875 292.8359375 C-58.41989746 291.9694458 -57.89057617 291.1029541 -57.34521484 290.21020508 C-56.79816895 289.2745874 -56.25112305 288.33896973 -55.6875 287.375 C-55.11209473 286.41295654 -54.53668945 285.45091309 -53.94384766 284.4597168 C-52.27583047 281.6510047 -50.63414948 278.82851666 -49 276 C-48.60345215 275.32565918 -48.2069043 274.65131836 -47.79833984 273.95654297 C-25.60303903 235.99557393 -14.05691938 190.43936259 -12.4609375 146.703125 C-12.42045792 145.6419899 -12.37997833 144.5808548 -12.33827209 143.48756409 C-11.84008586 129.64195869 -11.64626103 115.78985948 -11.4375 101.9375 C-11.39449261 99.20897448 -11.35057601 96.48046384 -11.30664062 93.75195312 C-11.20129986 87.16801495 -11.09926944 80.58403237 -11 74 C-11.56740906 74.00888245 -12.13481812 74.01776489 -12.71942139 74.0269165 C-18.62404305 74.11539794 -24.52847646 74.17573731 -30.43359375 74.21972656 C-32.6374476 74.23984419 -34.84124807 74.26714172 -37.04492188 74.30175781 C-40.21237356 74.35026833 -43.37911968 74.37296736 -46.546875 74.390625 C-48.02519806 74.42159271 -48.02519806 74.42159271 -49.53338623 74.45318604 C-56.37176398 74.45543014 -56.37176398 74.45543014 -59.62011719 72.10058594 C-61.53907445 69.17937074 -61.56577871 67.30826537 -61.39453125 63.90234375 C-60.78611893 60.96871205 -59.38853486 59.70609633 -57 58 C-54.21938025 57.07312675 -52.57948141 56.87806604 -49.7121582 56.88647461 C-48.85149246 56.88655014 -47.99082672 56.88662567 -47.1040802 56.88670349 C-46.17899155 56.89186478 -45.25390289 56.89702606 -44.30078125 56.90234375 C-43.35059616 56.9037587 -42.40041107 56.90517365 -41.4214325 56.90663147 C-38.38508971 56.91223125 -35.34882052 56.92478368 -32.3125 56.9375 C-30.25455836 56.94251503 -28.19661556 56.94707793 -26.13867188 56.95117188 C-21.09241954 56.9622006 -16.04622225 56.97946507 -11 57 C-11.01110306 56.34489441 -11.02220612 55.68978882 -11.03364563 55.01483154 C-11.14418731 48.20192079 -11.21964609 41.38926437 -11.2746582 34.57568359 C-11.29981627 32.03228408 -11.33394631 29.48895696 -11.37719727 26.94580078 C-11.43778821 23.29181062 -11.46619767 19.63877549 -11.48828125 15.984375 C-11.51408768 14.84570984 -11.5398941 13.70704468 -11.56648254 12.53387451 C-11.5692856 4.66034045 -11.5692856 4.66034045 -8.65698242 1.28222656 C-5.3953973 -0.29177372 -3.57931863 -0.5965531 0 0 Z M-4 209 C-4.18997559 209.68698975 -4.37995117 210.37397949 -4.57568359 211.08178711 C-13.86378699 244.3342997 -26.83486554 275.18433684 -46 304 C-43.17970367 305.88019755 -40.9054938 306.84692771 -37.73046875 307.953125 C-36.68310547 308.32276367 -35.63574219 308.69240234 -34.55664062 309.07324219 C-33.44482422 309.46157227 -32.33300781 309.84990234 -31.1875 310.25 C-22.86644787 313.16355358 -14.87342359 316.18367588 -7.0625 320.296875 C-2.46366353 321.35273031 0.73641827 319.76183941 5 318 C6.16450684 317.54173828 6.16450684 317.54173828 7.35253906 317.07421875 C9.78465112 316.10977777 12.20495765 315.11930311 14.625 314.125 C22.9853335 310.7294955 31.39373532 307.71227735 40 305 C39.59910156 304.319375 39.19820312 303.63875 38.78515625 302.9375 C37.20219018 300.23820185 35.62877007 297.53356993 34.06054688 294.82568359 C33.36980577 293.63660394 32.67594761 292.44932779 31.97851562 291.26416016 C16.77667053 265.39930657 5.38989695 238.07683071 -2 209 C-2.66 209 -3.32 209 -4 209 Z " fill="#FFFFFF" transform="translate(603,103)"/>
<path d="M0 0 C10.56 0 21.12 0 32 0 C33.43900005 4.31700015 34.64845104 8.4260242 35.69580078 12.83154297 C35.85214996 13.48590836 36.00849915 14.14027374 36.16958618 14.81446838 C36.68071055 16.95644334 37.18803858 19.09929772 37.6953125 21.2421875 C38.05094306 22.73582459 38.40681213 24.22940491 38.76290894 25.72293091 C39.69575878 29.63827181 40.62538225 33.55437176 41.55432129 37.47064209 C42.5043076 41.47308173 43.45736343 45.47479021 44.41015625 49.4765625 C46.27643153 57.31699857 48.13929679 65.1582397 50 73 C53.76699546 55.61009393 57.41529365 38.20366243 60.875 20.75 C61.28106306 18.7095982 61.68731289 16.66923357 62.09375 14.62890625 C63.06496559 9.75308814 64.03243085 4.8765485 65 0 C75.89 0 86.78 0 98 0 C102.95 23.76 107.9 47.52 113 72 C114.85185859 68.29628282 115.76187268 65.30625994 116.69580078 61.30371094 C116.85214996 60.63988403 117.00849915 59.97605713 117.16958618 59.29211426 C117.68292816 57.10728686 118.18915141 54.92087611 118.6953125 52.734375 C119.05073975 51.21541253 119.40661144 49.69655399 119.76290894 48.17779541 C120.69782148 44.18726565 121.62669855 40.19535468 122.55432129 36.203125 C123.66945845 31.40958565 124.79209184 26.61779709 125.91346741 21.82571411 C127.6147216 14.55180042 129.30644474 7.27572942 131 0 C141.23 0 151.46 0 162 0 C160.67499564 6.62502178 159.26730121 13.02414153 157.43383789 19.49780273 C157.18477188 20.38867584 156.93570587 21.27954895 156.67909241 22.19741821 C155.86376239 25.11046559 155.04323797 28.02202182 154.22265625 30.93359375 C153.64944039 32.97793859 153.0765651 35.02237894 152.50401306 37.06690979 C151.00089673 42.43110128 149.49341614 47.79405635 147.98492432 53.15673828 C146.158119 59.65408754 144.33645852 66.15288067 142.51400661 72.65145206 C141.09482738 77.71162775 139.67492076 82.77159537 138.25270081 87.83091736 C137.86044894 89.22700273 137.86044894 89.22700273 137.46027279 90.65129185 C136.96022136 92.43090042 136.45984141 94.21041672 135.95909214 95.98982906 C134.4411967 101.3933083 132.96161597 106.80533399 131.54612732 112.23670959 C131 114 131 114 130 115 C127.70848583 115.08790975 125.41427476 115.10694038 123.12109375 115.09765625 C122.09110008 115.09553383 122.09110008 115.09553383 121.04029846 115.09336853 C118.83932199 115.08775479 116.63844591 115.07520007 114.4375 115.0625 C112.94856917 115.05748676 111.45963676 115.05292355 109.97070312 115.04882812 C106.31376925 115.03778093 102.65689442 115.02050713 99 115 C97.4724021 110.64268276 96.31409035 106.30570457 95.30419922 101.80126953 C95.14785004 101.10788986 94.99150085 100.41451019 94.83041382 99.70011902 C94.31890962 97.42833041 93.81176921 95.15559194 93.3046875 92.8828125 C92.94909185 91.29948975 92.59322231 89.71622849 92.23709106 88.13302612 C91.30388733 83.98099668 90.37439102 79.8281459 89.44567871 75.67510986 C88.49598255 71.43133924 87.54276259 67.18836042 86.58984375 62.9453125 C84.72312355 54.63097684 82.86032144 46.3157697 81 38 C80.80177139 38.93516449 80.60354279 39.87032898 80.39930725 40.83383179 C78.53352965 49.63407456 76.66487807 58.43370273 74.79338932 67.23273277 C73.83126438 71.75673608 72.87016387 76.28095204 71.91137695 80.80566406 C70.98657326 85.16981863 70.05911472 89.53340115 69.12978935 93.896595 C68.77517939 95.5638062 68.42153697 97.23122348 68.06886482 98.89884567 C67.57587205 101.22917313 67.07948703 103.55875322 66.58227539 105.88818359 C66.43625885 106.58229843 66.29024231 107.27641327 66.13980103 107.99156189 C65.11405216 112.77189568 65.11405216 112.77189568 64 115 C53.44 115 42.88 115 32 115 C31.2793335 112.42960937 30.55866699 109.85921875 29.81616211 107.2109375 C27.40654779 98.61731008 24.99554497 90.02407264 22.5838995 81.43101501 C21.1250272 76.23267473 19.66659017 71.03421323 18.20922852 65.83544922 C16.52493821 59.82742359 14.83916259 53.81981618 13.15234375 47.8125 C12.87986187 46.84177551 12.60737999 45.87105103 12.32664108 44.87091064 C8.90308873 32.68033822 5.45423631 20.49920854 1.83006287 8.36645508 C0 2.20268804 0 2.20268804 0 0 Z " fill="#FFFFFF" transform="translate(544,912)"/>
<path d="M0 0 C6.97372047 5.06311212 11.24466234 11.0993824 15.28125 18.65625 C15.85359375 19.68492187 15.85359375 19.68492187 16.4375 20.734375 C25.68146898 39.08225282 24.16714901 63.79144852 18.28515625 82.890625 C13.38902503 95.96956376 4.59701415 106.48933486 -7.94921875 112.7734375 C-18.94172454 117.23847854 -30.70938453 116.49805983 -41.71875 112.65625 C-47.80929272 109.71248768 -51.88483533 106.49016467 -56.71875 101.65625 C-57.04875 119.80625 -57.37875 137.95625 -57.71875 156.65625 C-67.94875 156.65625 -78.17875 156.65625 -88.71875 156.65625 C-88.71875 103.85625 -88.71875 51.05625 -88.71875 -3.34375 C-78.81875 -3.34375 -68.91875 -3.34375 -58.71875 -3.34375 C-58.38875 0.61625 -58.05875 4.57625 -57.71875 8.65625 C-56.72875 7.439375 -55.73875 6.2225 -54.71875 4.96875 C-40.70026476 -10.90017529 -17.13159738 -11.05963882 0 0 Z M-50.71875 26.65625 C-59.02963426 38.91662153 -59.62225247 54.16535568 -57.03125 68.4453125 C-54.7072864 76.09502603 -51.05117903 81.89873002 -44.15625 86.09375 C-38.04484352 88.79168376 -30.5380178 89.09459605 -24.28125 86.73828125 C-16.21992948 82.02057663 -12.49596609 75.3211642 -9.71875 66.65625 C-7.11402658 54.71793433 -7.94281014 40.1782932 -14.40625 29.59375 C-18.19027925 24.61329973 -22.22425053 21.48335047 -28.359375 20.03125 C-36.69692429 18.9133663 -44.74870369 20.35453445 -50.71875 26.65625 Z " fill="#FFFFFF" transform="translate(1095.71875,915.34375)"/>
<path d="M0 0 C10.23 0 20.46 0 31 0 C31.33 16.5 31.66 33 32 50 C34.97 47.36 37.94 44.72 41 42 C54.23524687 35.85506395 68.30491886 34.85726437 82.16015625 39.73828125 C86.35826308 41.60346489 89.67275443 43.84747281 93 47 C93.56460938 47.52464844 94.12921875 48.04929687 94.7109375 48.58984375 C101.33502618 55.45627714 102.46226011 64.29447446 102.34057617 73.48876953 C102.34123329 74.82232231 102.34123329 74.82232231 102.34190369 76.18281555 C102.33983555 79.08304833 102.31659901 81.98268237 102.29296875 84.8828125 C102.28736575 86.9087594 102.28309898 88.9347104 102.28010559 90.96066284 C102.26871224 96.26415448 102.23929298 101.56739528 102.20599365 106.87078857 C102.17517341 112.29403288 102.16157481 117.71731815 102.14648438 123.140625 C102.11441754 133.76054398 102.06169513 144.38021178 102 155 C91.77 155 81.54 155 71 155 C70.95101562 149.93011719 70.90203125 144.86023438 70.8515625 139.63671875 C70.81613519 136.40558021 70.78015188 133.17446668 70.7421875 129.94335938 C70.6821141 124.82612886 70.62398825 119.70893292 70.578125 114.59155273 C70.54097775 110.46116515 70.49454236 106.33097275 70.44193649 102.20075417 C70.42354759 100.63291699 70.40838386 99.06503822 70.39665604 97.49713707 C71.05450001 81.20082659 71.05450001 81.20082659 65 67 C58.56291045 63.55155917 53.09688917 63.58497609 46 65 C40.09253143 67.18795132 36.29176019 70.5044875 33.38745117 76.11523438 C30.92331819 83.03663697 31.51628544 90.71190559 31.48828125 97.96875 C31.47141628 99.61642785 31.45326362 101.26409298 31.43388367 102.91174316 C31.38657462 107.22542341 31.35664223 111.53905205 31.33044434 115.85290527 C31.30054192 120.26401965 31.25404507 124.67495654 31.20898438 129.0859375 C31.12316863 137.72388542 31.05726309 146.36181556 31 155 C20.77 155 10.54 155 0 155 C0 103.85 0 52.7 0 0 Z " fill="#FFFFFF" transform="translate(829,872)"/>
<path d="M0 0 C35.97 0 71.94 0 109 0 C109 8.91 109 17.82 109 27 C83.92 27 58.84 27 33 27 C33 38.22 33 49.44 33 61 C54.78 61 76.56 61 99 61 C99 70.24 99 79.48 99 89 C77.22 89 55.44 89 33 89 C33 110.78 33 132.56 33 155 C22.11 155 11.22 155 0 155 C0 103.85 0 52.7 0 0 Z " fill="#FFFFFF" transform="translate(87,872)"/>
<path d="M0 0 C13.22349602 10.47229886 18.61273061 24.09995814 20.578125 40.59375 C22.16252044 55.34056368 22.16252044 55.34056368 20.328125 60.84375 C-4.421875 61.17375 -29.171875 61.50375 -54.671875 61.84375 C-52.9707491 72.81039746 -52.9707491 72.81039746 -46.7734375 81.4140625 C-40.55909297 85.45685169 -35.03172875 86.50952624 -27.671875 85.84375 C-22.01841592 84.56162624 -18.47611098 82.30014072 -14.671875 77.84375 C-14.27766357 77.13895508 -13.88345215 76.43416016 -13.47729492 75.70800781 C-11.671875 73.84375 -11.671875 73.84375 -8.4855957 73.38964844 C-7.20257568 73.4105957 -5.91955566 73.43154297 -4.59765625 73.453125 C-3.57190742 73.46161469 -3.57190742 73.46161469 -2.5254364 73.47027588 C-0.34436601 73.49264184 1.83505253 73.54283235 4.015625 73.59375 C5.49541895 73.613815 6.9752387 73.63206578 8.45507812 73.6484375 C12.0799626 73.69250526 15.70388256 73.76153178 19.328125 73.84375 C16.72484265 87.14738265 10.68344242 96.97676482 -0.53125 104.8515625 C-6.99059206 108.85099968 -13.23319981 111.35839154 -20.671875 112.84375 C-21.80625 113.070625 -22.940625 113.2975 -24.109375 113.53125 C-39.88458819 114.91504063 -55.81394522 112.92836947 -68.4296875 102.58203125 C-81.09678504 90.53883553 -87.26342475 75.11679962 -87.89453125 57.78515625 C-88.33918044 38.17783706 -85.84175837 19.28062895 -72.046875 4.28125 C-53.20124778 -12.93825222 -20.85460439 -14.73558873 0 0 Z M-50.671875 24.84375 C-53.81887021 30.14756436 -54.671875 33.53487076 -54.671875 39.84375 C-40.481875 39.84375 -26.291875 39.84375 -11.671875 39.84375 C-12.69975572 30.59282352 -13.78616668 26.83447746 -19.984375 20.46875 C-30.15751905 14.31754662 -42.56391157 16.1701147 -50.671875 24.84375 Z " fill="#FFFFFF" transform="translate(285.671875,917.15625)"/>
<path d="M0 0 C4.73334637 4.49324909 8.03796414 9.63017813 11.1875 15.3125 C11.58839844 16.00730469 11.98929688 16.70210937 12.40234375 17.41796875 C21.26964456 34.71757072 19.83652516 57.66721926 14.12109375 75.671875 C8.86009364 89.3539479 -1.16951917 99.8537752 -14.44140625 106.05859375 C-30.87349809 112.17064645 -50.4606291 112.30622315 -66.75 105.5 C-68.12196716 104.80490468 -69.47697978 104.0752825 -70.8125 103.3125 C-71.91271484 102.69955078 -71.91271484 102.69955078 -73.03515625 102.07421875 C-85.74338182 94.33593388 -92.52945076 82.81960239 -96.453125 68.73828125 C-98.05500794 62.08081029 -98.25763202 55.69728698 -98.1875 48.875 C-98.19910156 47.75029297 -98.21070313 46.62558594 -98.22265625 45.46679688 C-98.16561256 28.91461941 -93.6860349 14.55536075 -82.08984375 2.49609375 C-60.74764803 -17.96752101 -22.77195019 -18.80323468 0 0 Z M-58.65234375 21.33203125 C-66.39743704 32.1448632 -67.66842592 44.5242681 -66.1875 57.5 C-64.59147928 66.95012268 -61.37897658 73.96456311 -53.7734375 79.97265625 C-47.955966 83.94754216 -41.64342319 83.94319603 -34.8125 83.3125 C-28.92594779 81.95024045 -23.86191466 79.43428279 -20.46875 74.265625 C-12.83598533 61.04141644 -12.33552641 47.28844339 -15.7734375 32.62109375 C-18.28675975 24.61814658 -22.7190947 19.59531075 -29.8125 15.3125 C-39.70511955 12.01496015 -51.45592367 13.43277609 -58.65234375 21.33203125 Z " fill="#FFFFFF" transform="translate(522.8125,920.6875)"/>
<path d="M0 0 C8.4610453 6.92984867 11.96343282 14.68756771 13.78125 25.40234375 C13.78125 27.05234375 13.78125 28.70234375 13.78125 30.40234375 C3.55125 30.40234375 -6.67875 30.40234375 -17.21875 30.40234375 C-18.20875 27.43234375 -19.19875 24.46234375 -20.21875 21.40234375 C-25.56307052 16.9794578 -30.28089476 15.18517859 -37.21875 15.40234375 C-42.65389065 16.00269066 -47.0304771 16.69378493 -51.21875 20.40234375 C-52.47028259 22.74329906 -52.47028259 22.74329906 -52.21875 25.40234375 C-48.76668078 29.5370983 -45.75658881 31.30670703 -40.65625 32.90234375 C-40.0163916 33.10537109 -39.3765332 33.30839844 -38.71728516 33.51757812 C-33.23379431 35.20961185 -27.66955742 36.55393555 -22.09375 37.90234375 C6.43888577 44.82400015 6.43888577 44.82400015 13.78125 56.40234375 C19.01249555 66.08983551 18.43847216 76.94617455 15.78125 87.40234375 C12.11457217 97.02737306 4.76976586 104.14530508 -4.515625 108.375 C-12.49328979 111.40697376 -20.71112767 112.99188829 -29.21875 113.40234375 C-30.26546875 113.45519531 -31.3121875 113.50804687 -32.390625 113.5625 C-47.08797679 113.94489716 -63.09874481 111.97786953 -74.53125 102.08984375 C-82.0631157 94.81769756 -85.56655184 88.93342797 -87.21875 78.40234375 C-87.21875 76.09234375 -87.21875 73.78234375 -87.21875 71.40234375 C-76.65875 71.40234375 -66.09875 71.40234375 -55.21875 71.40234375 C-54.22875 74.37234375 -53.23875 77.34234375 -52.21875 80.40234375 C-49.48601343 84.55610334 -45.63197149 85.6235477 -41 86.86328125 C-33.2839984 88.35879841 -25.271145 88.18581746 -18.21875 84.40234375 C-15.67521334 81.63437738 -15.29239979 80.10938172 -14.90625 76.40234375 C-17.02822509 71.55211498 -21.47909527 70.34602057 -26.21875 68.40234375 C-30.0530936 67.22065091 -33.92793435 66.33242535 -37.84375 65.46484375 C-71.0649539 57.59457931 -71.0649539 57.59457931 -80.21875 44.40234375 C-82.99279271 38.97574925 -83.73655342 34.65243071 -83.65625 28.58984375 C-83.64940186 27.79666748 -83.64255371 27.00349121 -83.63549805 26.1862793 C-83.46459853 19.93212508 -82.4001172 14.86211584 -79.21875 9.40234375 C-78.87972656 8.77328125 -78.54070313 8.14421875 -78.19140625 7.49609375 C-72.50454261 -1.73241094 -62.32184211 -6.03047711 -52.21875 -8.59765625 C-34.93144884 -12.30737753 -14.55385201 -10.47979837 0 0 Z " fill="#FFFFFF" transform="translate(796.21875,917.59765625)"/>
<path d="M0 0 C65.55 0 65.55 0 76.4765625 10.40625 C81.97715307 16.4536829 83.52750267 22.55584442 83.375 30.4375 C83.36557373 31.18813721 83.35614746 31.93877441 83.34643555 32.7121582 C83.14766181 39.9812583 81.81261517 45.88573938 76.8046875 51.546875 C72.7178722 54.83755745 67.7581912 56.85995228 63 59 C63.7734375 59.27972656 64.546875 59.55945313 65.34375 59.84765625 C73.91989629 63.14862345 81.13160976 66.7136306 85.4375 75.1875 C88.8223054 84.04816837 88.87285787 93.99925723 86 103 C81.12319508 113.73207706 74.61173891 118.70775672 63.8671875 123.01953125 C43.7136762 129.91126331 21.29929549 125 0 125 C0 83.75 0 42.5 0 0 Z M16 13 C16 26.2 16 39.4 16 53 C23.858125 53.0928125 23.858125 53.0928125 31.875 53.1875 C34.32268799 53.22846802 34.32268799 53.22846802 36.81982422 53.27026367 C45.86666637 53.32181105 54.04416829 53.05785361 61.9375 48.1875 C67.31847619 42.48040404 67.52941717 36.79657878 67.34765625 29.2890625 C66.90763764 25.12618983 65.96576843 22.96576843 63 20 C53.11619683 12.09295746 40.49956707 12.8524554 28.5 12.9375 C22.3125 12.9684375 22.3125 12.9684375 16 13 Z M16 66 C16 81.18 16 96.36 16 112 C23.7653125 112.12375 23.7653125 112.12375 31.6875 112.25 C33.29197998 112.28641602 34.89645996 112.32283203 36.54956055 112.36035156 C46.04880176 112.43293188 56.66198072 112.41470719 64.35009766 106.05639648 C70.1199944 99.99133495 71.491068 93.96412796 71.3125 85.75 C70.65716991 79.98309521 68.26436659 76.32317434 64.3125 72.1875 C53.78428837 65.23490742 41.65707362 65.85781616 29.5 65.9375 C25.045 65.958125 20.59 65.97875 16 66 Z " fill="#FFFFFF" transform="translate(727,702)"/>
<path d="M0 0 C10.56 0 21.12 0 32 0 C32 51.15 32 102.3 32 155 C21.44 155 10.88 155 0 155 C0 103.85 0 52.7 0 0 Z " fill="#FFFFFF" transform="translate(322,872)"/>
<path d="M0 0 C10.23 0 20.46 0 31 0 C31 51.15 31 102.3 31 155 C20.77 155 10.54 155 0 155 C0 103.85 0 52.7 0 0 Z " fill="#FFFFFF" transform="translate(377,872)"/>
<path d="M0 0 C4.95 0 9.9 0 15 0 C15.33 16.17 15.66 32.34 16 49 C17.65 47.35 19.3 45.7 21 44 C28.34741519 37.59456112 38.82933583 36.63054815 48.25 37.0625 C58.29729086 38.13016514 66.21573439 41.3549351 73 49 C84.16616936 64.2933476 85.07089696 83.79159237 82.5390625 102.078125 C80.39711755 112.51065687 75.55346846 122.39542309 67 129 C56.6808901 135.48513231 44.8716741 136.38365559 33.01953125 134.53515625 C25.66207496 132.60738863 20.23686979 128.38100382 15 123 C13.53173403 126.42595393 12.74613857 129.26930717 12 133 C8.04 133 4.08 133 0 133 C0 89.11 0 45.22 0 0 Z M21.62109375 58.1328125 C14.79207796 65.99852226 14.52945674 78.80281648 14.75390625 88.7578125 C15.51968057 98.84658525 16.56773025 109.46402416 24 117 C31.49232735 122.77330852 39.89579246 122.71445575 49 122 C55.19495772 120.38307707 59.69150199 116.39962583 63 111 C69.43393049 97.72102524 69.71597945 80.30135036 65.1484375 66.41015625 C62.59685944 60.17642285 59.63000439 55.36196656 53.5 52.1875 C41.90374761 48.25305722 30.62705076 49.39866505 21.62109375 58.1328125 Z " fill="#FFFFFF" transform="translate(882,694)"/>
<path d="M0 0 C8.60789882 7.29018867 13.12596336 16.70200777 14.58984375 27.8515625 C15.0253206 33.44018209 14.96484375 39.05850195 14.96484375 44.6640625 C-6.48515625 44.6640625 -27.93515625 44.6640625 -50.03515625 44.6640625 C-46.67833552 61.21789057 -46.67833552 61.21789057 -36.03515625 72.6640625 C-20.82231584 79.99882484 -4.38732849 75.70149402 10.96484375 70.6640625 C10.96484375 75.2840625 10.96484375 79.9040625 10.96484375 84.6640625 C-3.8994945 91.03449318 -21.88255558 93.99267777 -37.65234375 88.703125 C-49.19269992 83.67077296 -56.19066294 77.1486052 -61.7734375 65.921875 C-64.79195468 58.1279328 -65.39576991 50.66285288 -65.34765625 42.3515625 C-65.3420166 41.33481445 -65.33637695 40.31806641 -65.33056641 39.27050781 C-65.10822108 25.5291263 -61.83473901 13.59103663 -52.28515625 3.2890625 C-38.22799773 -9.77740104 -15.55603172 -11.42088405 0 0 Z M-42.03515625 13.6640625 C-43.08703125 14.7778125 -43.08703125 14.7778125 -44.16015625 15.9140625 C-47.77352645 21.21367213 -49.03515625 26.287451 -49.03515625 32.6640625 C-33.52515625 32.6640625 -18.01515625 32.6640625 -2.03515625 32.6640625 C-2.03515625 23.29042691 -3.02795234 19.2751085 -7.91015625 11.7890625 C-12.44505917 7.25415958 -17.52439604 5.83428353 -23.72265625 5.4140625 C-31.28049258 5.54096647 -37.14483181 7.79567318 -42.03515625 13.6640625 Z " fill="#FFFFFF" transform="translate(1093.03515625,738.3359375)"/>
<path d="M0 0 C6.50610901 7.0637755 8.31737548 15.21609985 8.30102539 24.55200195 C8.30117142 25.25498917 8.30131744 25.95797638 8.3014679 26.68226624 C8.30077441 28.99263659 8.29300857 31.30292508 8.28515625 33.61328125 C8.28329006 35.22039241 8.28186711 36.82750415 8.28086853 38.43461609 C8.27705915 42.65468937 8.26724239 46.87472797 8.25616455 51.0947876 C8.24591643 55.40498384 8.24136363 59.7151857 8.23632812 64.02539062 C8.22561867 72.47527629 8.20856127 80.92513383 8.1875 89.375 C4.2275 89.375 0.2675 89.375 -3.8125 89.375 C-4.8025 85.745 -5.7925 82.115 -6.8125 78.375 C-7.76125 79.426875 -8.71 80.47875 -9.6875 81.5625 C-17.28317651 89.17361487 -26.00014523 91.5853077 -36.5 91.625 C-46.96453979 91.58698601 -54.19906504 89.96055477 -61.96484375 82.49609375 C-67.06506294 76.64108525 -68.14922775 69.3998375 -68.0234375 61.83984375 C-67.44809305 55.11683727 -65.52239698 48.89582431 -60.78125 43.96875 C-45.68890597 31.75113817 -25.14037223 32.76875013 -6.8125 32.375 C-7.06867193 29.81026688 -7.34184453 27.24927663 -7.625 24.6875 C-7.69525391 23.96626953 -7.76550781 23.24503906 -7.83789062 22.50195312 C-8.33819108 18.1193211 -9.08407823 14.98813278 -11.8125 11.375 C-17.73735571 7.12125744 -23.70732396 6.69616152 -30.8125 7.375 C-39.69270948 9.17329053 -39.69270948 9.17329053 -48.0078125 12.5703125 C-49.8125 13.375 -49.8125 13.375 -51.953125 13.2421875 C-53.8125 12.375 -53.8125 12.375 -54.859375 10.6328125 C-55.09140625 9.92898438 -55.3234375 9.22515625 -55.5625 8.5 C-55.80484375 7.80132813 -56.0471875 7.10265625 -56.296875 6.3828125 C-56.8125 4.375 -56.8125 4.375 -56.8125 1.375 C-38.16167873 -6.76919195 -18.6092831 -10.75203024 0 0 Z M-46.8125 51.375 C-50.894783 55.89861089 -52.12895482 59.16329146 -52.02734375 65.31640625 C-51.55379167 69.85389622 -49.58975298 72.656041 -46.3125 75.6875 C-40.4601762 79.63781856 -33.60787467 78.87701376 -26.8125 78.375 C-20.08304002 76.95111157 -15.4382493 73.98224262 -11.21875 68.55859375 C-6.10807632 60.62285324 -6.45871371 52.58654681 -6.8125 43.375 C-28.14593328 42.98331468 -28.14593328 42.98331468 -46.8125 51.375 Z " fill="#FFFFFF" transform="translate(256.8125,737.625)"/>
<path d="M0 0 C6.1031664 6.53910686 7.75353469 14.26238067 7.73852539 22.96777344 C7.73867142 23.68036819 7.73881744 24.39296295 7.7389679 25.12715149 C7.73827291 27.47542395 7.73049994 29.82361645 7.72265625 32.171875 C7.7207906 33.80283566 7.71936739 35.43379688 7.71836853 37.0647583 C7.71455494 41.35224969 7.70473454 45.63970708 7.69366455 49.92718506 C7.68342553 54.30431661 7.67886557 58.68145367 7.67382812 63.05859375 C7.66311123 71.64324475 7.64604872 80.22786814 7.625 88.8125 C3.995 88.8125 0.365 88.8125 -3.375 88.8125 C-4.83733512 85.1566622 -6.15822054 81.5497512 -7.375 77.8125 C-7.84808594 78.34359375 -8.32117188 78.8746875 -8.80859375 79.421875 C-15.78236367 86.87143819 -22.77993062 90.44413952 -33.01171875 91.015625 C-42.91470745 91.20934734 -51.68577028 91.09410736 -59.75 84.625 C-66.35918824 78.20273829 -67.99201619 72.05429362 -68.40234375 62.921875 C-68.33149999 54.86592722 -65.63046701 48.94975678 -60.375 42.8125 C-49.59657076 33.13892114 -33.09194444 32.72351968 -19.4375 32.25 C-18.27669922 32.20681641 -17.11589844 32.16363281 -15.91992188 32.11914062 C-13.07171768 32.01365158 -10.22343471 31.91153445 -7.375 31.8125 C-7.62401618 20.64619101 -7.62401618 20.64619101 -12.375 10.8125 C-18.04924915 6.41495691 -24.4387344 6.14979946 -31.375 6.8125 C-40.24397754 8.66285144 -40.24397754 8.66285144 -48.6328125 11.9453125 C-50.375 12.8125 -50.375 12.8125 -53.375 12.8125 C-54.04854499 11.37820999 -54.71359701 9.93992943 -55.375 8.5 C-55.74625 7.69949219 -56.1175 6.89898438 -56.5 6.07421875 C-57.375 3.8125 -57.375 3.8125 -57.375 0.8125 C-39.44354046 -7.01757067 -17.37862363 -12.46258618 0 0 Z M-49.6875 52.9375 C-52.40186201 57.56196861 -53.06130571 62.60569101 -51.93359375 67.875 C-50.36298022 72.03936959 -48.05302405 74.42178437 -44.375 76.8125 C-36.52436314 79.42937895 -27.02667019 78.69804853 -19.5625 75.19921875 C-13.62658118 71.43627021 -9.73474749 66.13372602 -7.796875 59.3984375 C-6.95370892 54.23014171 -7.15732947 49.0285308 -7.375 43.8125 C-30.17334418 42.78062324 -30.17334418 42.78062324 -49.6875 52.9375 Z " fill="#FFFFFF" transform="translate(485.375,738.1875)"/>
<path d="M0 0 C5.28 0 10.56 0 16 0 C32.96898055 43.59569844 32.96898055 43.59569844 38.4375 58.8125 C38.78353271 59.77406006 39.12956543 60.73562012 39.48608398 61.72631836 C41.16239673 66.44685998 42.68747474 71.16542204 44 76 C46.54379966 69.32357186 48.92763056 62.59449999 51.29980469 55.8554039 C52.26017335 53.12842089 53.22343766 50.40246363 54.18652344 47.67643929 C55.97316496 42.61930554 57.75872934 37.56179989 59.5390625 32.50244141 C60.78405471 28.96477424 62.03286611 25.42847561 63.28417969 21.8930397 C63.75760399 20.55319554 64.22963264 19.21285733 64.70019531 17.87200546 C65.3590103 15.99526414 66.02315626 14.12039681 66.6875 12.24560547 C67.06261719 11.18163544 67.43773437 10.11766541 67.82421875 9.02145386 C69.02593148 5.9333628 70.51808098 2.96383803 72 0 C77.28 0 82.56 0 88 0 C85.88011183 7.35155037 83.41781418 14.4903033 80.7109375 21.64453125 C80.29491272 22.75226898 79.87888794 23.86000671 79.45025635 25.00131226 C78.09531757 28.60636234 76.73549533 32.20954354 75.375 35.8125 C74.43131946 38.31610259 73.48777206 40.81975488 72.54443359 43.32348633 C71.10517359 47.14309166 69.66550884 50.96254232 68.22415161 54.78135681 C65.54910086 61.87117425 62.89075557 68.9669396 60.25485229 76.07142639 C58.73886915 80.15633241 57.21596756 84.23864069 55.69219971 88.32064819 C54.99005342 90.20684562 54.29103098 92.09420937 53.59539795 93.9828186 C41.12943471 127.80569188 41.12943471 127.80569188 27.625 134.5 C20.0047975 137.20702029 8.64927443 137.54975814 1 135 C1 131.04 1 127.08 1 123 C2.65 123.04125 4.3 123.0825 6 123.125 C13.79188956 123.10499515 19.7306987 121.97025689 26 117 C27.72917759 114.55259199 28.98940366 111.96280332 30.25 109.25 C30.58773437 108.57195312 30.92546875 107.89390625 31.2734375 107.1953125 C35.64246112 98.22935225 35.64246112 98.22935225 34.87380981 88.6414032 C34.24628208 87.0442867 33.5941773 85.45668462 32.92236328 83.87768555 C32.57152679 83.00351486 32.22069031 82.12934418 31.85922241 81.22868347 C30.70035353 78.35576343 29.51051591 75.49678212 28.3203125 72.63671875 C27.50821944 70.63837171 26.69826216 68.63915551 25.89035034 66.63911438 C23.76263283 61.38633285 21.6091189 56.14453423 19.44909668 50.90496826 C15.99179539 42.50395243 12.57729889 34.08540089 9.15642929 25.66950417 C7.95751502 22.72914564 6.74971886 19.79256929 5.54006958 16.85661316 C4.80544401 15.06288783 4.07089203 13.26913236 3.33642578 11.4753418 C2.9966571 10.65712952 2.65688843 9.83891724 2.30682373 8.99591064 C0 3.33946338 0 3.33946338 0 0 Z " fill="#FFFFFF" transform="translate(578,733)"/>
<path d="M0 0 C-1.49170266 4.9723422 -3.60457417 9.41845739 -6 14 C-7.09699219 13.65066406 -8.19398438 13.30132813 -9.32421875 12.94140625 C-10.77860238 12.48163336 -12.23303189 12.02200559 -13.6875 11.5625 C-14.40873047 11.33240234 -15.12996094 11.10230469 -15.87304688 10.86523438 C-29.05432813 6.71222795 -42.14038616 6.36451253 -55 12 C-65.71018702 17.66303017 -71.43804204 26.16762809 -75.2734375 37.45703125 C-77.14987512 44.02456291 -77.21805231 50.26962249 -77.25 57.0625 C-77.270625 58.13177734 -77.29125 59.20105469 -77.3125 60.30273438 C-77.37456973 73.14340922 -74.12555273 83.94556 -67.25 94.75 C-57.49712019 104.50287981 -46.06546932 107.20830984 -32.71655273 107.25976562 C-25.66252779 107.19034019 -19.09864447 106.16714873 -12.22265625 104.65625 C-9 104 -9 104 -5 104 C-5 108.29 -5 112.58 -5 117 C-20.9149142 124.9574571 -42.9295541 124.13246764 -59.6875 119.1875 C-72.38275077 114.63637236 -82.02023687 106.12929872 -88 94 C-88.37769531 93.24332031 -88.75539063 92.48664063 -89.14453125 91.70703125 C-97.57990295 72.84591924 -97.40976892 49.07583815 -90.8984375 29.7265625 C-85.22248738 15.18880639 -76.37794865 4.43475258 -62 -2 C-42.30455016 -9.62011842 -19.05504807 -9.69467358 0 0 Z " fill="#FFFFFF" transform="translate(177,707)"/>
<path d="M0 0 C10.56 0 21.12 0 32 0 C32 37.95 32 75.9 32 115 C21.44 115 10.88 115 0 115 C0 77.05 0 39.1 0 0 Z " fill="#FFFFFF" transform="translate(953,912)"/>
<path d="M0 0 C5.61 0 11.22 0 17 0 C17.43755615 1.23226318 17.8751123 2.46452637 18.32592773 3.73413086 C19.99200051 8.42569167 21.65867647 13.11703799 23.32562256 17.80828857 C24.06501206 19.88918886 24.80431103 21.97012132 25.54351807 24.05108643 C30.7411701 38.69009013 30.7411701 38.69009013 35.99609375 53.30859375 C36.6149646 55.01897827 36.6149646 55.01897827 37.24633789 56.76391602 C37.97379655 58.76910869 38.70329626 60.77356266 39.43530273 62.77709961 C39.75313721 63.65245361 40.07097168 64.52780762 40.3984375 65.4296875 C40.66317871 66.15397949 40.92791992 66.87827148 41.20068359 67.62451172 C42.24234488 70.72022472 43.11955879 73.85515764 44 77 C44.21804794 76.38930664 44.43609589 75.77861328 44.66075134 75.14941406 C46.9793283 68.65690206 49.30060499 62.16535949 51.62329102 55.67431641 C52.48397711 53.26797687 53.34402736 50.86140978 54.20336914 48.45458984 C59.99081102 32.24704343 65.90633796 16.09500577 72 0 C77.28 0 82.56 0 88 0 C86.75727484 6.12421297 85.13968356 11.77672492 82.8671875 17.58984375 C82.55794846 18.39636383 82.24870941 19.20288391 81.93009949 20.03384399 C80.91760382 22.67069824 79.89638718 25.30407864 78.875 27.9375 C78.16530312 29.78027464 77.45624769 31.62329644 76.74780273 33.46655273 C75.64213252 36.3426323 74.53582898 39.2184562 73.42704773 42.09333801 C70.73406349 49.0769168 68.06885449 56.07065405 65.41796875 63.0703125 C64.68050902 65.01570931 63.94304169 66.96110323 63.20556641 68.90649414 C62.13634762 71.72744718 61.06774427 74.54862481 60.00115967 77.37057495 C59.01497956 79.97847022 58.02545846 82.58507404 57.03515625 85.19140625 C56.74110397 85.97166168 56.4470517 86.75191711 56.14408875 87.55581665 C54.11391858 92.88608142 54.11391858 92.88608142 53 94 C51.65732587 94.08631874 50.31025678 94.10706473 48.96484375 94.09765625 C48.15595703 94.09443359 47.34707031 94.09121094 46.51367188 94.08789062 C45.66353516 94.07951172 44.81339844 94.07113281 43.9375 94.0625 C43.08349609 94.05798828 42.22949219 94.05347656 41.34960938 94.04882812 C39.23304337 94.03700373 37.11651315 94.01906769 35 94 C34.79749634 93.46686188 34.59499268 92.93372375 34.38635254 92.38442993 C32.60907524 87.70543373 30.83160615 83.02651046 29.05395508 78.34765625 C27.34235997 73.84263568 25.63134255 69.33739625 23.9206543 64.83203125 C19.68605696 53.68222399 15.44353136 42.53560122 11.17578125 31.3984375 C10.07294728 28.51703867 8.9703007 25.63556819 7.86767578 22.75408936 C7.16461033 20.91903485 6.46034702 19.08443884 5.75488281 17.25030518 C4.77770623 14.70963445 3.80446463 12.16748914 2.83203125 9.625 C2.54233963 8.87527924 2.25264801 8.12555847 1.95417786 7.3531189 C0 2.22753693 0 2.22753693 0 0 Z " fill="#FFFFFF" transform="translate(322,733)"/>
<path d="M0 0 C4.95 0 9.9 0 15 0 C15 43.89 15 87.78 15 133 C10.05 133 5.1 133 0 133 C0 89.11 0 45.22 0 0 Z " fill="#FFFFFF" transform="translate(989,694)"/>
<path d="M0 0 C4.95 0 9.9 0 15 0 C15 43.89 15 87.78 15 133 C10.05 133 5.1 133 0 133 C0 89.11 0 45.22 0 0 Z " fill="#FFFFFF" transform="translate(293,694)"/>
<path d="M0 0 C-0.14133499 1.77119803 -0.28823208 3.54195287 -0.4375 5.3125 C-0.51871094 6.29863281 -0.59992187 7.28476562 -0.68359375 8.30078125 C-1 11 -1 11 -2 14 C-2.97839844 13.95359375 -3.95679688 13.9071875 -4.96484375 13.859375 C-14.75412657 13.58985689 -21.07202935 14.68309668 -29.25 20.1875 C-38.68060332 29.83243521 -39.27975623 41.69107891 -39.4140625 54.5703125 C-39.43342865 55.73255341 -39.4527948 56.89479431 -39.4727478 58.09225464 C-39.53207295 61.769764 -39.57873969 65.44730546 -39.625 69.125 C-39.66322312 71.63282543 -39.70227731 74.14063835 -39.7421875 76.6484375 C-39.83773549 82.76552217 -39.92193881 88.8826682 -40 95 C-44.95 95 -49.9 95 -55 95 C-55 63.98 -55 32.96 -55 1 C-50.71 1 -46.42 1 -42 1 C-41.34 5.95 -40.68 10.9 -40 16 C-39.195625 14.80375 -38.39125 13.6075 -37.5625 12.375 C-28.37706786 0.19244328 -14.43554415 -3.03906193 0 0 Z " fill="#FFFFFF" transform="translate(576,732)"/>
<path d="M0 0 C4.95 0 9.9 0 15 0 C15 31.02 15 62.04 15 94 C10.05 94 5.1 94 0 94 C0 62.98 0 31.96 0 0 Z " fill="#FFFFFF" transform="translate(838,733)"/>
<path d="M0 0 C10.56 0 21.12 0 32 0 C32 9.24 32 18.48 32 28 C21.44 28 10.88 28 0 28 C0 18.76 0 9.52 0 0 Z " fill="#FFFFFF" transform="translate(953,872)"/>
<path d="M0 0 C0.89589844 0.00322266 1.79179687 0.00644531 2.71484375 0.00976562 C4.12056641 0.02233398 4.12056641 0.02233398 5.5546875 0.03515625 C6.49957031 0.03966797 7.44445312 0.04417969 8.41796875 0.04882812 C10.75527137 0.06063268 13.09244811 0.07709866 15.4296875 0.09765625 C15.0996875 1.41765625 14.7696875 2.73765625 14.4296875 4.09765625 C13.1096875 4.09765625 11.7896875 4.09765625 10.4296875 4.09765625 C10.7596875 4.75765625 11.0896875 5.41765625 11.4296875 6.09765625 C11.9062187 9.50575911 11.97007016 12.69485061 11.4296875 16.09765625 C8.66307616 19.66512876 7.18079418 20.75368887 2.8046875 21.61328125 C0.33816707 21.87955334 -2.09082598 22.04375437 -4.5703125 22.09765625 C-4.9003125 23.74765625 -5.2303125 25.39765625 -5.5703125 27.09765625 C-4.03310547 27.15373047 -4.03310547 27.15373047 -2.46484375 27.2109375 C-1.10413188 27.27662704 0.25654361 27.34307334 1.6171875 27.41015625 C2.29072266 27.43271484 2.96425781 27.45527344 3.65820312 27.47851562 C8.02920095 27.71305697 10.93525863 28.43241389 14.4296875 31.09765625 C16.00424489 34.24677104 15.77767868 36.61774441 15.4296875 40.09765625 C12.93298555 44.36621119 11.03300504 46.26100265 6.2421875 47.53515625 C-0.1905378 48.56611055 -6.14965791 48.69528828 -11.6953125 45.03515625 C-13.79799044 41.74096082 -14.29060052 39.8522702 -14.08203125 36.01171875 C-13.25773456 32.9284716 -10.80879143 31.27873829 -8.5703125 29.09765625 C-8.8100996 25.99150287 -8.8100996 25.99150287 -9.5703125 23.09765625 C-8.9103125 22.10765625 -8.2503125 21.11765625 -7.5703125 20.09765625 C-8.2509375 19.29328125 -8.9315625 18.48890625 -9.6328125 17.66015625 C-12.00870901 14.10053906 -11.86635744 11.28555001 -11.19140625 7.15234375 C-10.3248472 4.28561381 -8.9688035 2.84201334 -6.5703125 1.09765625 C-4.16971433 -0.10264283 -2.67670601 -0.01694118 0 0 Z M-5.0078125 4.09765625 C-7.37161785 7.1233271 -7.63601306 9.28702383 -7.5703125 13.09765625 C-5.65364583 16.18098958 -5.65364583 16.18098958 -2.5703125 18.09765625 C0.86948743 18.65925624 2.64706041 18.49954584 5.7421875 16.91015625 C7.92939844 14.56092968 8.35498393 13.30990962 8.4296875 10.09765625 C7.67164902 6.74818637 7.67164902 6.74818637 5.4296875 4.09765625 C1.75455593 2.68833673 -1.37414003 2.60691883 -5.0078125 4.09765625 Z M-8.51171875 33.43359375 C-10.19854624 36.08521188 -10.01542904 38.04542852 -9.5703125 41.09765625 C-6.70507619 43.86543555 -4.63445861 44.5094707 -0.6953125 44.47265625 C3.66984728 44.31790908 6.87579868 43.83141688 10.4296875 41.09765625 C11.67019557 38.15655767 11.67019557 38.15655767 11.4296875 35.09765625 C10.4554683 33.2809954 10.4554683 33.2809954 8.4296875 32.09765625 C5.82926795 31.79895941 3.52269591 31.67820468 0.9296875 31.72265625 C0.25292969 31.71105469 -0.42382812 31.69945312 -1.12109375 31.6875 C-4.03204209 31.70472455 -6.07604777 31.75753847 -8.51171875 33.43359375 Z " fill="#FFFFFF" transform="translate(353.5703125,1110.90234375)"/>
<path d="M0 0 C1.32 0 2.64 0 4 0 C6.31 7.92 8.62 15.84 11 24 C13.64 16.08 16.28 8.16 19 0 C20.32 0 21.64 0 23 0 C25.64 7.92 28.28 15.84 31 24 C34.465 12.12 34.465 12.12 38 0 C39.32 0 40.64 0 42 0 C40.7344221 7.70757691 38.99059098 15.17158467 36.875 22.6875 C36.59785156 23.68716797 36.32070313 24.68683594 36.03515625 25.71679688 C35.36108709 28.14577023 34.68266323 30.57343085 34 33 C32.35 33 30.7 33 29 33 C27.82599412 29.56496228 26.66206791 26.12659286 25.5 22.6875 C25.16613281 21.71103516 24.83226562 20.73457031 24.48828125 19.72851562 C24.17246094 18.79072266 23.85664062 17.85292969 23.53125 16.88671875 C23.09135742 15.59060669 23.09135742 15.59060669 22.64257812 14.26831055 C22 12 22 12 22 9 C21.34 9 20.68 9 20 9 C19.773125 10.175625 19.54625 11.35125 19.3125 12.5625 C17.77989164 19.54313956 15.328741 26.25376175 13 33 C11.35 32.67 9.7 32.34 8 32 C6.85385832 28.08757221 5.71474464 24.17317321 4.58203125 20.25683594 C4.19592586 18.92554975 3.80792331 17.59481223 3.41796875 16.26464844 C2.85695836 14.34977112 2.30338797 12.43271904 1.75 10.515625 C1.41484375 9.36352539 1.0796875 8.21142578 0.734375 7.02441406 C0 4 0 4 0 0 Z " fill="#FFFFFF" transform="translate(851,1111)"/>
<path d="M0 0 C0.99 0 1.98 0 3 0 C3 0.99 3 1.98 3 3 C3.61875 2.505 4.2375 2.01 4.875 1.5 C9.26549441 -0.60743732 13.20526785 -0.6130969 18 0 C21.125 1.5 21.125 1.5 23 3 C23.639375 2.505 24.27875 2.01 24.9375 1.5 C28.98015338 -0.48007513 32.56292689 -0.61118896 37 0 C39.45743745 0.87861194 40.66516116 1.48910959 42.10327148 3.68334961 C43.25826084 6.66720313 43.22547621 9.09952123 43.1953125 12.296875 C43.18886719 13.50214844 43.18242188 14.70742187 43.17578125 15.94921875 C43.15902344 17.20347656 43.14226563 18.45773437 43.125 19.75 C43.11597656 21.01972656 43.10695313 22.28945312 43.09765625 23.59765625 C43.07409005 26.73196093 43.04118832 29.86588541 43 33 C41.68 33 40.36 33 39 33 C38.99589111 32.22809326 38.99178223 31.45618652 38.98754883 30.66088867 C38.9546881 27.16897579 38.88405107 23.67882526 38.8125 20.1875 C38.80669922 18.97255859 38.80089844 17.75761719 38.79492188 16.50585938 C38.76591797 15.34248047 38.73691406 14.17910156 38.70703125 12.98046875 C38.6913208 11.90692139 38.67561035 10.83337402 38.65942383 9.72729492 C38.24442065 6.81180421 38.24442065 6.81180421 35.6862793 5.1027832 C32.91001628 3.71643188 32.91001628 3.71643188 29.3125 4.375 C25.7517797 5.66110924 25.7517797 5.66110924 24.83203125 8.94921875 C23.66565349 13.71802522 23.54390112 18.54992396 23.375 23.4375 C23.33632813 24.35982422 23.29765625 25.28214844 23.2578125 26.23242188 C23.16431324 28.48809143 23.0785609 30.74376916 23 33 C22.01 33 21.02 33 20 33 C19.98018066 32.36497559 19.96036133 31.72995117 19.93994141 31.07568359 C19.84418878 28.17506674 19.73471454 25.27512095 19.625 22.375 C19.5940625 21.37597656 19.563125 20.37695312 19.53125 19.34765625 C19.32760852 14.22267899 19.01388817 9.79731083 17 5 C12.96901069 3.84828877 10.70658609 3.99643995 7 6 C4.77464206 9.33803691 4.71021596 10.62819711 4.5859375 14.54296875 C4.54726563 15.61611328 4.50859375 16.68925781 4.46875 17.79492188 C4.4378125 18.91447266 4.406875 20.03402344 4.375 21.1875 C4.33632813 22.31865234 4.29765625 23.44980469 4.2578125 24.61523438 C4.16347467 27.4099925 4.07788348 30.20474278 4 33 C2.68 33 1.36 33 0 33 C0 22.11 0 11.22 0 0 Z " fill="#FFFFFF" transform="translate(663,1111)"/>
<path d="M0 0 C1.32 0 2.64 0 4 0 C4 15.18 4 30.36 4 46 C2.68 45.67 1.36 45.34 0 45 C-2.09771437 44.86141341 -2.09771437 44.86141341 -4.1875 46 C-8.89826867 47.67493997 -12.59561903 47.54014653 -17.25 45.75 C-21.07158012 43.31808538 -22.57820787 41.26537638 -24 37 C-24.14648082 34.73236426 -24.2209626 32.45967634 -24.25 30.1875 C-24.28867187 28.38345703 -24.28867187 28.38345703 -24.328125 26.54296875 C-23.90501286 21.97436508 -22.4170126 18.71222356 -19.5 15.1875 C-16.5921989 12.8854908 -13.62562552 12.814297 -10.0625 12.75 C-8.78052734 12.71132812 -8.78052734 12.71132812 -7.47265625 12.671875 C-5 13 -5 13 -1 16 C-0.67 10.72 -0.34 5.44 0 0 Z M-16 18 C-19.65545426 21.75425033 -20.317433 24.92589659 -20.5 30 C-20.32920315 35.28813327 -19.5712465 38.11364352 -16 42 C-12.76160072 43.61919964 -9.50057245 43.55660443 -6 43 C-2.83651599 41.33821811 -2.83651599 41.33821811 -1 38 C0.47196781 31.71508482 0.4858057 25.96593369 -2 20 C-3.75017517 17.37473724 -4.80180078 17.05601282 -7.875 16.1875 C-11.39205674 15.9764766 -12.99118684 16.17887624 -16 18 Z " fill="#FFFFFF" transform="translate(288,1098)"/>
<path d="M0 0 C2.26071851 1.45448636 3.78615896 2.74809916 4.99609375 5.16796875 C6.03178956 13.5275135 6.03178956 13.5275135 3.87890625 16.9375 C2.49609375 18.29296875 2.49609375 18.29296875 -0.00390625 20.16796875 C1.45015625 21.15796875 1.45015625 21.15796875 2.93359375 22.16796875 C5.45879001 24.28626135 6.5121625 25.77708895 7.05859375 29.04296875 C7.2778466 33.33870048 6.18671964 36.44390474 3.99609375 40.16796875 C-1.48171526 44.38166799 -7.32148454 44.65008978 -14.00390625 44.16796875 C-16.43207983 43.65840678 -18.64862014 42.96976828 -21.00390625 42.16796875 C-21.00390625 40.51796875 -21.00390625 38.86796875 -21.00390625 37.16796875 C-20.24078125 37.49796875 -19.47765625 37.82796875 -18.69140625 38.16796875 C-13.30031302 39.62996014 -7.07164394 40.35359354 -1.75 38.296875 C0.79649467 36.65048359 1.25495698 35.06513976 1.99609375 32.16796875 C1.84977391 29.09525209 1.58296716 27.72315651 -0.66796875 25.59375 C-3.54107356 23.84009907 -5.93083478 23.4500332 -9.25390625 22.98046875 C-10.87039063 22.74263672 -10.87039063 22.74263672 -12.51953125 22.5 C-13.74929688 22.33564453 -13.74929688 22.33564453 -15.00390625 22.16796875 C-15.00390625 21.17796875 -15.00390625 20.18796875 -15.00390625 19.16796875 C-14.25625 19.07 -13.50859375 18.97203125 -12.73828125 18.87109375 C-6.72016761 18.00701627 -6.72016761 18.00701627 -1.31640625 15.41796875 C0.4280228 12.42751894 0.50338803 10.57408749 -0.00390625 7.16796875 C-1.5818459 4.62573265 -2.84316946 4.22030166 -5.69140625 3.29296875 C-9.46726417 3.15048355 -11.70103235 4.00277448 -15.07421875 5.57421875 C-17.4133022 6.29393674 -18.71746201 5.9402788 -21.00390625 5.16796875 C-20.00390625 2.16796875 -20.00390625 2.16796875 -17.12890625 0.48046875 C-11.82935274 -1.57379117 -5.33063923 -2.21330635 0 0 Z " fill="#FFFFFF" transform="translate(1015.00390625,1100.83203125)"/>
<path d="M0 0 C0.87454834 0.00523682 1.74909668 0.01047363 2.65014648 0.01586914 C3.59438477 0.0190918 4.53862305 0.02231445 5.51147461 0.02563477 C6.50469727 0.03401367 7.49791992 0.04239258 8.52124023 0.05102539 C9.51833008 0.05553711 10.51541992 0.06004883 11.54272461 0.06469727 C14.01478872 0.07652532 16.48673541 0.0930069 18.95874023 0.11352539 C18.95874023 1.43352539 18.95874023 2.75352539 18.95874023 4.11352539 C13.01874023 4.11352539 7.07874023 4.11352539 0.95874023 4.11352539 C0.95874023 7.08352539 0.95874023 10.05352539 0.95874023 13.11352539 C0.45874023 16.17602539 0.45874023 16.17602539 -0.04125977 18.11352539 C0.92811523 17.90727539 1.89749023 17.70102539 2.89624023 17.48852539 C7.48988356 16.85491942 11.63196265 17.45249654 15.95874023 19.11352539 C19.15859328 21.71340599 20.65757355 23.21002534 21.95874023 27.11352539 C22.35488678 32.36246706 21.82431341 35.66694633 18.95874023 40.11352539 C13.96875588 44.84761311 9.85150102 45.33629614 3.22045898 45.28149414 C0.25343549 45.06114525 -2.29900713 44.23855211 -5.04125977 43.11352539 C-5.04125977 41.46352539 -5.04125977 39.81352539 -5.04125977 38.11352539 C-4.23688477 38.44352539 -3.43250977 38.77352539 -2.60375977 39.11352539 C2.78309102 40.62562386 7.67675728 41.08458197 12.89624023 38.86352539 C15.16658775 36.93716992 16.16176467 35.98263743 16.95874023 33.11352539 C16.72470294 28.36154564 16.72470294 28.36154564 14.58374023 24.23852539 C10.96436108 21.73280136 7.57602274 22.03827426 3.33374023 22.11352539 C1.20907153 22.15104713 -0.91677563 22.16034598 -3.04125977 22.11352539 C-4.04125977 21.11352539 -4.04125977 21.11352539 -4.07885742 19.17993164 C-4.03809082 18.35364258 -3.99732422 17.52735352 -3.95532227 16.67602539 C-3.91149414 15.78141602 -3.86766602 14.88680664 -3.82250977 13.96508789 C-3.77094727 13.02407227 -3.71938477 12.08305664 -3.66625977 11.11352539 C-3.62243164 10.17250977 -3.57860352 9.23149414 -3.53344727 8.26196289 C-3.11385613 0.17317822 -3.11385613 0.17317822 0 0 Z " fill="#FFFFFF" transform="translate(918.041259765625,1099.886474609375)"/>
<path d="M0 0 C3.98069576 2.32207253 4.90624821 3.81249643 7 8 C7 11.3 7 14.6 7 18 C-0.26 18 -7.52 18 -15 18 C-14.01 20.97 -13.02 23.94 -12 27 C-6.13075775 29.93462112 -0.335953 29.63508464 6 28 C6 29.32 6 30.64 6 32 C-0.25034674 34.50013869 -5.39090566 34.7827283 -11.75 32.875 C-15.66519184 30.61623547 -17.06714974 29.08872169 -19 25 C-20.45720434 18.60330154 -20.19190577 13.15821145 -18 7 C-13.4199962 -0.02267249 -8.01911918 -1.06575004 0 0 Z M-12 6 C-14.1477418 8.96240248 -15 10.31446856 -15 14 C-9.06 14 -3.12 14 3 14 C2.57825293 7.62944484 2.57825293 7.62944484 0.8125 5.125 C-3.97020002 2.15642757 -7.71172975 2.52302412 -12 6 Z " fill="#FFFFFF" transform="translate(840,1111)"/>
<path d="M0 0 C1.65 0 3.3 0 5 0 C5 9.9 5 19.8 5 30 C7.31 30 9.62 30 12 30 C12 30.99 12 31.98 12 33 C9.69 33 7.38 33 5 33 C5 36.63 5 40.26 5 44 C3.68 44 2.36 44 1 44 C1 40.37 1 36.74 1 33 C-6.26 33 -13.52 33 -21 33 C-20.00053589 29.00214355 -18.88417941 27.09960928 -16.54296875 23.7890625 C-15.84236328 22.79132813 -15.14175781 21.79359375 -14.41992188 20.765625 C-13.31487305 19.21101563 -13.31487305 19.21101563 -12.1875 17.625 C-10.74306116 15.57582276 -9.2990384 13.52635215 -7.85546875 11.4765625 C-7.17532715 10.52297852 -6.49518555 9.56939453 -5.79443359 8.58691406 C-4.35946993 6.5182236 -3.06831404 4.44398384 -1.80078125 2.2734375 C-0.90939453 1.14808594 -0.90939453 1.14808594 0 0 Z M1 5 C2 7 2 7 2 7 Z M0 7 C-2.45772884 10.17847171 -4.70427748 13.51578823 -7 16.8125 C-7.65484375 17.74126953 -8.3096875 18.67003906 -8.984375 19.62695312 C-9.60828125 20.51962891 -10.2321875 21.41230469 -10.875 22.33203125 C-11.44992187 23.15421143 -12.02484375 23.9763916 -12.6171875 24.82348633 C-14.1467258 27.03713733 -14.1467258 27.03713733 -15 30 C-9.72 30 -4.44 30 1 30 C1 22.41 1 14.82 1 7 C0.67 7 0.34 7 0 7 Z " fill="#FFFFFF" transform="translate(1100,1100)"/>
<path d="M0 0 C1.32 0 2.64 0 4 0 C4.33 4.95 4.66 9.9 5 15 C6.32 14.34 7.64 13.68 9 13 C14.16106461 12.33852227 18.56840797 12.16967662 23.125 14.8125 C26.20934276 18.41089988 26.11993514 21.41329605 26.09765625 25.98046875 C26.09443359 27.14384766 26.09121094 28.30722656 26.08789062 29.50585938 C26.07951172 30.72080078 26.07113281 31.93574219 26.0625 33.1875 C26.05798828 34.41404297 26.05347656 35.64058594 26.04882812 36.90429688 C26.03703065 39.93624668 26.02056921 42.96809906 26 46 C24.68 46 23.36 46 22 46 C21.98018066 45.25838623 21.96036133 44.51677246 21.93994141 43.75268555 C21.84477072 40.39726166 21.73505906 37.04246714 21.625 33.6875 C21.5940625 32.52025391 21.563125 31.35300781 21.53125 30.15039062 C21.49257813 29.03212891 21.45390625 27.91386719 21.4140625 26.76171875 C21.3826416 25.73006592 21.3512207 24.69841309 21.31884766 23.63549805 C21.17325371 20.77156764 21.17325371 20.77156764 19 18 C14.458327 16.65814207 11.24425979 16.8778701 7 19 C5.24080643 22.46104656 4.72110186 25.44859694 4.5859375 29.30078125 C4.54726563 30.27724609 4.50859375 31.25371094 4.46875 32.25976562 C4.4378125 33.26716797 4.406875 34.27457031 4.375 35.3125 C4.33632813 36.33923828 4.29765625 37.36597656 4.2578125 38.42382812 C4.16385103 40.94904265 4.0781846 43.47425592 4 46 C2.68 46 1.36 46 0 46 C0 30.82 0 15.64 0 0 Z " fill="#FFFFFF" transform="translate(787,1098)"/>
<path d="M0 0 C3.17743962 2.22420773 4.62547902 3.57149348 5.61108398 7.33081055 C6.0150536 10.10331513 6.11330434 12.71852287 6.09765625 15.51953125 C6.09443359 16.54111328 6.09121094 17.56269531 6.08789062 18.61523438 C6.07951172 19.67033203 6.07113281 20.72542969 6.0625 21.8125 C6.05798828 22.88693359 6.05347656 23.96136719 6.04882812 25.06835938 C6.03707729 27.71229683 6.02064787 30.35611952 6 33 C4.68 33 3.36 33 2 33 C1.67 32.01 1.34 31.02 1 30 C0.40638672 30.71542969 0.40638672 30.71542969 -0.19921875 31.4453125 C-3.50821312 34.30210157 -7.77507718 34.12464834 -12 34 C-17.51612903 31.96774194 -17.51612903 31.96774194 -19 29 C-19.66739635 24.14707508 -19.75085716 21.00114288 -16.75 17 C-12.43024575 13.85836054 -9.02670281 13.88014453 -3.75 13.9375 C-2.67234375 13.94652344 -1.5946875 13.95554687 -0.484375 13.96484375 C0.33546875 13.97644531 1.1553125 13.98804688 2 14 C0.515 9.545 0.515 9.545 -1 5 C-6.34001821 3.66499545 -9.83955235 4.487455 -15 6 C-15.33 4.68 -15.66 3.36 -16 2 C-10.6632804 -0.4073246 -5.78523309 -0.85128055 0 0 Z M-13 19 C-15.15502531 22.23253796 -15.46856135 23.25150923 -15 27 C-14.04451019 28.95625978 -14.04451019 28.95625978 -12 30 C-7.54694077 30.67215988 -5.52206973 30.30937465 -1.625 28 C1.77210858 24.11759019 1.82846699 22.06022385 2 17 C-3.43059731 16.80945273 -7.83451546 17.03711588 -13 19 Z " fill="#FFFFFF" transform="translate(135,1111)"/>
<path d="M0 0 C1.32 0 2.64 0 4 0 C4.33 4.95 4.66 9.9 5 15 C6.32 14.34 7.64 13.68 9 13 C14.42753158 12.23157154 18.63410905 11.9892407 23.125 15.3125 C25.88021873 19.26164685 26.12151702 22.06114649 26.09765625 26.76171875 C26.09443359 27.87998047 26.09121094 28.99824219 26.08789062 30.15039062 C26.07951172 31.31763672 26.07113281 32.48488281 26.0625 33.6875 C26.05798828 34.86634766 26.05347656 36.04519531 26.04882812 37.25976562 C26.03703273 40.17322789 26.0205727 43.08658863 26 46 C24.68 46 23.36 46 22 46 C21.98018066 45.25838623 21.96036133 44.51677246 21.93994141 43.75268555 C21.84477072 40.39726166 21.73505906 37.04246714 21.625 33.6875 C21.5940625 32.52025391 21.563125 31.35300781 21.53125 30.15039062 C21.49257813 29.03212891 21.45390625 27.91386719 21.4140625 26.76171875 C21.3826416 25.73006592 21.3512207 24.69841309 21.31884766 23.63549805 C21.17325371 20.77156764 21.17325371 20.77156764 19 18 C14.44140484 16.65314234 11.28563899 16.95458139 7 19 C4.96245733 22.09928732 4.70792492 24.76225234 4.5859375 28.421875 C4.54726563 29.44667969 4.50859375 30.47148438 4.46875 31.52734375 C4.4378125 32.59082031 4.406875 33.65429688 4.375 34.75 C4.33632813 35.82894531 4.29765625 36.90789062 4.2578125 38.01953125 C4.16365369 40.67951775 4.07802613 43.3394994 4 46 C2.68 46 1.36 46 0 46 C0 30.82 0 15.64 0 0 Z " fill="#FFFFFF" transform="translate(375,1098)"/>
<path d="M0 0 C3.61691275 2.09780939 4.68291409 3.04874226 6 7 C6.08291953 8.9920303 6.10738177 10.98673713 6.09765625 12.98046875 C6.09443359 14.14384766 6.09121094 15.30722656 6.08789062 16.50585938 C6.07951172 17.72080078 6.07113281 18.93574219 6.0625 20.1875 C6.05798828 21.41404297 6.05347656 22.64058594 6.04882812 23.90429688 C6.03703065 26.93624668 6.02056921 29.96809906 6 33 C5.401875 32.835 4.80375 32.67 4.1875 32.5 C1.49851066 31.88537387 -0.30165113 31.6009435 -2.75 33 C-5.98111604 34.43605157 -8.50048197 34.30697527 -12 34 C-15.5386994 32.34860695 -16.81070153 31.28394771 -19 28 C-19.45256282 23.92693464 -19.44033197 21.73388661 -17.3125 18.1875 C-13.13512914 14.23593297 -9.31535149 13.75131096 -3.6875 13.875 C-2.61886719 13.89304687 -1.55023437 13.91109375 -0.44921875 13.9296875 C0.35902344 13.95289063 1.16726563 13.97609375 2 14 C1.7525 12.72125 1.505 11.4425 1.25 10.125 C1.11078125 9.40570312 0.9715625 8.68640625 0.828125 7.9453125 C0.13887934 5.88222956 0.13887934 5.88222956 -1.71875 4.6875 C-4.70760849 3.78674813 -6.7122357 4.22405051 -9.75 4.875 C-10.73484375 5.07867188 -11.7196875 5.28234375 -12.734375 5.4921875 C-13.48203125 5.65976563 -14.2296875 5.82734375 -15 6 C-15.33 4.68 -15.66 3.36 -16 2 C-10.6550234 -0.42073216 -5.79499076 -0.72219855 0 0 Z M-15 22 C-14.64736215 26.50317123 -14.64736215 26.50317123 -12 30 C-7.04255339 30.46768364 -3.93009069 30.14407255 0 27 C2.33287288 23.77841364 2.17683757 20.89042645 2 17 C-4.63657851 16.65070639 -10.03983403 17.03983403 -15 22 Z " fill="#FFFFFF" transform="translate(732,1111)"/>
<path d="M0 0 C2.93423195 1.79646854 4.47205355 2.9441071 6 6 C6.08527628 8.03232634 6.10716135 10.06747006 6.09765625 12.1015625 C6.09443359 13.31328125 6.09121094 14.525 6.08789062 15.7734375 C6.07951172 17.04445313 6.07113281 18.31546875 6.0625 19.625 C6.05798828 20.90375 6.05347656 22.1825 6.04882812 23.5 C6.03701203 26.66671292 6.02053815 29.83333356 6 33 C5.01 33 4.02 33 3 33 C3 32.01 3 31.02 3 30 C2.50371094 30.28875 2.00742188 30.5775 1.49609375 30.875 C-3.15486952 33.41670289 -6.57949939 34.80303713 -12 34 C-15.375 32.5 -15.375 32.5 -18 30 C-19.45242693 26.113338 -19.39600635 23.0482521 -17.9375 19.1875 C-15.36339376 16.28125102 -13.725981 15.24199367 -10 14 C-5.98622457 13.7641971 -2.01526868 13.82457564 2 14 C1.75349218 9.00822998 1.75349218 9.00822998 -0.875 4.9375 C-5.75696368 3.4729109 -10.13275996 4.81515523 -15 6 C-15.33 4.68 -15.66 3.36 -16 2 C-10.73660502 -0.21616631 -5.63519325 -0.78892706 0 0 Z M-12 19 C-14.2081584 21.17891059 -14.2081584 21.17891059 -15 24 C-14.44525427 26.76309357 -14.44525427 26.76309357 -13 29 C-9.89951072 30.55024464 -7.42105782 30.28992015 -4 30 C-1.24670979 28.20437595 0.52627461 26.94745078 2 24 C2.04022391 21.6670134 2.04320247 19.33293334 2 17 C-3.07005012 16.79305918 -7.26614599 17.08825126 -12 19 Z " fill="#FFFFFF" transform="translate(215,1111)"/>
<path d="M0 0 C1.73056641 -0.00386719 1.73056641 -0.00386719 3.49609375 -0.0078125 C6.5625 0.125 6.5625 0.125 9.5625 1.125 C9.5625 2.445 9.5625 3.765 9.5625 5.125 C8.83804688 5.04121094 8.11359375 4.95742187 7.3671875 4.87109375 C2.2275818 4.32972195 -2.35115942 3.88778202 -7.4375 5.125 C-7.57093734 7.99283616 -7.57093734 7.99283616 -6.4375 11.125 C-3.99302132 13.01779459 -1.26696423 14.1595944 1.5625 15.375 C9.466602 18.93320399 9.466602 18.93320399 10.5625 21.125 C11.06442696 25.55868811 11.10913334 27.42652407 8.3125 31 C3.51171033 34.70970111 -1.5524831 34.56205652 -7.4375 34.125 C-11 33.125 -11 33.125 -13.4375 32.125 C-13.4375 30.805 -13.4375 29.485 -13.4375 28.125 C-12.4475 28.29 -11.4575 28.455 -10.4375 28.625 C-2.11816217 29.84983079 -2.11816217 29.84983079 5.5625 27.125 C5.64313145 24.74869569 5.64313145 24.74869569 4.5625 22.125 C2.06688668 20.51625753 -0.21000136 19.24514248 -2.875 18 C-10.2042426 14.4748861 -10.2042426 14.4748861 -12.4375 11.125 C-12.10945326 5.00146077 -12.10945326 5.00146077 -10 2.25 C-6.63274668 -0.17442239 -4.10907055 -0.00916181 0 0 Z " fill="#FFFFFF" transform="translate(100.4375,1110.875)"/>
<path d="M0 0 C1.32 0 2.64 0 4 0 C4.33 0.99 4.66 1.98 5 3 C5.54785156 2.51402344 6.09570312 2.02804687 6.66015625 1.52734375 C10.75744999 -1.14718355 15.27912102 -0.65043221 20 0 C23.00197464 1.80118478 24.45166366 2.90332732 26 6 C26.08527628 8.03232634 26.10716135 10.06747006 26.09765625 12.1015625 C26.09443359 13.31328125 26.09121094 14.525 26.08789062 15.7734375 C26.07951172 17.04445313 26.07113281 18.31546875 26.0625 19.625 C26.05798828 20.90375 26.05347656 22.1825 26.04882812 23.5 C26.03701203 26.66671292 26.02053815 29.83333356 26 33 C25.01 33 24.02 33 23 33 C22.98018066 32.39526855 22.96036133 31.79053711 22.93994141 31.16748047 C22.84413701 28.40291491 22.73468445 25.63904826 22.625 22.875 C22.5940625 21.92367188 22.563125 20.97234375 22.53125 19.9921875 C22.23166391 12.80170465 22.23166391 12.80170465 20 6 C16.57545467 4.13206618 14.66104983 3.89630591 10.8125 4.5 C7.04228366 6.51078205 6.52359662 8.00382371 5 12 C4.51334292 15.62133293 4.39905891 19.22468726 4.3125 22.875 C4.27833984 23.84953125 4.24417969 24.8240625 4.20898438 25.828125 C4.12695707 28.21863491 4.05766152 30.60879905 4 33 C2.68 33 1.36 33 0 33 C0 22.11 0 11.22 0 0 Z " fill="#FFFFFF" transform="translate(230,1111)"/>
<path d="M0 0 C2.24141961 4.08729457 2.48550578 8.35122832 1.3125 12.75 C-0.92257463 16.6613806 -0.92257463 16.6613806 -2.9375 17.9375 C-7.78442237 18.56290934 -9.81491392 18.66250351 -13.9375 16 C-16.58292433 11.94919399 -16.74010768 8.66021257 -15.9375 3.9375 C-14.94441213 1.58258278 -14.30492326 0.23426494 -12.3125 -1.375 C-8.14274954 -2.58203303 -3.81514819 -2.09217804 0 0 Z " fill="#FFFFFF" transform="translate(852.9375,700.0625)"/>
<path d="M0 0 C0.99 0 1.98 0 3 0 C3 2.31 3 4.62 3 7 C5.97 7 8.94 7 12 7 C12 8.32 12 9.64 12 11 C9.03 11 6.06 11 3 11 C3.33 19.25 3.66 27.5 4 36 C6.97 36.33 9.94 36.66 13 37 C13 37.99 13 38.98 13 40 C10.57847262 41.21076369 9.24576913 41.07767714 6.5625 40.875 C5.78003906 40.83117188 4.99757813 40.78734375 4.19140625 40.7421875 C2 40 2 40 0.38134766 37.81225586 C-1.16464692 34.66479889 -1.34884019 32.74437213 -1.29296875 29.26171875 C-1.2784668 27.66166992 -1.2784668 27.66166992 -1.26367188 26.02929688 C-1.23853516 24.92650391 -1.21339844 23.82371094 -1.1875 22.6875 C-1.17396484 21.56537109 -1.16042969 20.44324219 -1.14648438 19.28710938 C-1.1112138 16.52424771 -1.06192235 13.76237171 -1 11 C-2.32 11 -3.64 11 -5 11 C-5 10.01 -5 9.02 -5 8 C-3.68 7.67 -2.36 7.34 -1 7 C-0.67 4.69 -0.34 2.38 0 0 Z " fill="#FFFFFF" transform="translate(768,1104)"/>
<path d="M0 0 C0.99 0 1.98 0 3 0 C3 2.31 3 4.62 3 7 C5.97 7 8.94 7 12 7 C12 8.32 12 9.64 12 11 C9.03 11 6.06 11 3 11 C3.33 19.25 3.66 27.5 4 36 C6.97 36.33 9.94 36.66 13 37 C13 37.99 13 38.98 13 40 C10.57847262 41.21076369 9.24576913 41.07767714 6.5625 40.875 C5.78003906 40.83117188 4.99757813 40.78734375 4.19140625 40.7421875 C2 40 2 40 0.38134766 37.81225586 C-1.16464692 34.66479889 -1.34884019 32.74437213 -1.29296875 29.26171875 C-1.2784668 27.66166992 -1.2784668 27.66166992 -1.26367188 26.02929688 C-1.23853516 24.92650391 -1.21339844 23.82371094 -1.1875 22.6875 C-1.17396484 21.56537109 -1.16042969 20.44324219 -1.14648438 19.28710938 C-1.1112138 16.52424771 -1.06192235 13.76237171 -1 11 C-2.32 11 -3.64 11 -5 11 C-5 10.01 -5 9.02 -5 8 C-3.68 7.67 -2.36 7.34 -1 7 C-0.67 4.69 -0.34 2.38 0 0 Z " fill="#FFFFFF" transform="translate(748,1104)"/>
<path d="M0 0 C0.66 0 1.32 0 2 0 C2 2.31 2 4.62 2 7 C5.3 7 8.6 7 12 7 C12 8.32 12 9.64 12 11 C8.7 11 5.4 11 2 11 C2.11391224 14.41736734 2.24066552 17.83342643 2.375 21.25 C2.4059375 22.21808594 2.436875 23.18617187 2.46875 24.18359375 C2.50742188 25.11816406 2.54609375 26.05273438 2.5859375 27.015625 C2.6173584 27.87446289 2.6487793 28.73330078 2.68115234 29.61816406 C3.02740512 32.20472002 3.51387468 33.85209867 5 36 C8.56206661 36.81870185 8.56206661 36.81870185 12 37 C11.67 38.32 11.34 39.64 11 41 C2.83973289 41.31385643 2.83973289 41.31385643 0 39 C-2.6084146 33.35617054 -2.22693243 27.70174086 -2.125 21.625 C-2.11597656 20.60277344 -2.10695312 19.58054687 -2.09765625 18.52734375 C-2.0742043 16.01798478 -2.04138355 13.50911664 -2 11 C-3.32 11 -4.64 11 -6 11 C-6 10.01 -6 9.02 -6 8 C-5.38125 7.79375 -4.7625 7.5875 -4.125 7.375 C-1.15346355 5.45224112 -0.86975341 3.33405473 0 0 Z " fill="#FFFFFF" transform="translate(165,1104)"/>
<path d="M0 0 C0.66 0 1.32 0 2 0 C2 2.31 2 4.62 2 7 C4.97 7 7.94 7 11 7 C11 8.32 11 9.64 11 11 C8.03 11 5.06 11 2 11 C2.10979085 14.60479946 2.24044045 18.20854679 2.375 21.8125 C2.4059375 22.83666016 2.436875 23.86082031 2.46875 24.91601562 C2.50742187 25.89892578 2.54609375 26.88183594 2.5859375 27.89453125 C2.6173584 28.80050049 2.6487793 29.70646973 2.68115234 30.63989258 C2.86027919 33.26525392 2.86027919 33.26525392 5 36 C8.56769552 36.73606499 8.56769552 36.73606499 12 37 C11.67 38.32 11.34 39.64 11 41 C3.10968921 41.30347349 3.10968921 41.30347349 0 39 C-2.0647163 35.74108647 -2.23590613 33.17517597 -2.1953125 29.359375 C-2.18886719 28.28945312 -2.18242187 27.21953125 -2.17578125 26.1171875 C-2.15902344 25.00601562 -2.14226562 23.89484375 -2.125 22.75 C-2.11597656 21.62335938 -2.10695313 20.49671875 -2.09765625 19.3359375 C-2.07410658 16.55707635 -2.0412168 13.7786461 -2 11 C-3.32 11 -4.64 11 -6 11 C-6 10.01 -6 9.02 -6 8 C-5.38125 7.79375 -4.7625 7.5875 -4.125 7.375 C-1.15346355 5.45224112 -0.86975341 3.33405473 0 0 Z " fill="#FFFFFF" transform="translate(412,1104)"/>
<path d="M0 0 C0 14.52 0 29.04 0 44 C-1.32 44 -2.64 44 -4 44 C-4.33 31.79 -4.66 19.58 -5 7 C-7.31 8.65 -9.62 10.3 -12 12 C-12.99 11.67 -13.98 11.34 -15 11 C-13.53546319 7.44101807 -11.6456231 5.59825849 -8.625 3.25 C-7.85414062 2.63640625 -7.08328125 2.0228125 -6.2890625 1.390625 C-4 0 -4 0 0 0 Z " fill="#FFFFFF" transform="translate(1065,1100)"/>
<path d="M0 0 C0 14.52 0 29.04 0 44 C-1.32 44 -2.64 44 -4 44 C-4 31.46 -4 18.92 -4 6 C-6.64 7.98 -9.28 9.96 -12 12 C-12.99 11.67 -13.98 11.34 -15 11 C-15 10.01 -15 9.02 -15 8 C-12.734375 5.95703125 -12.734375 5.95703125 -9.75 3.8125 C-8.77546875 3.09707031 -7.8009375 2.38164063 -6.796875 1.64453125 C-4 0 -4 0 0 0 Z " fill="#FFFFFF" transform="translate(978,1100)"/>
<path d="M0 0 C1.32 0 2.64 0 4 0 C4 15.18 4 30.36 4 46 C2.68 46 1.36 46 0 46 C0 30.82 0 15.64 0 0 Z " fill="#FFFFFF" transform="translate(317,1098)"/>
<path d="M0 0 C1.32 0 2.64 0 4 0 C4 15.18 4 30.36 4 46 C2.68 46 1.36 46 0 46 C0 30.82 0 15.64 0 0 Z " fill="#FFFFFF" transform="translate(150,1098)"/>
<path d="M0 0 C1.32 0 2.64 0 4 0 C4 10.89 4 21.78 4 33 C2.68 33 1.36 33 0 33 C0 22.11 0 11.22 0 0 Z " fill="#FFFFFF" transform="translate(330,1111)"/>
<path d="M0 0 C4.62 0 9.24 0 14 0 C14 0.99 14 1.98 14 3 C9.38 3 4.76 3 0 3 C0 2.01 0 1.02 0 0 Z " fill="#FFFFFF" transform="translate(1028,1126)"/>
<path d="M0 0 C1.67542976 0.28604898 3.34385343 0.61781233 5 1 C5 2.65 5 4.3 5 6 C3.34385343 6.38218767 1.67542976 6.71395102 0 7 C-1 6 -1 6 -1.125 3.5 C-1 1 -1 1 0 0 Z " fill="#FFFFFF" transform="translate(948,1138)"/>
<path d="M0 0 C1.65 0.33 3.3 0.66 5 1 C5 2.65 5 4.3 5 6 C3.125 6.625 3.125 6.625 1 7 C0.34 6.34 -0.32 5.68 -1 5 C-0.625 2.375 -0.625 2.375 0 0 Z " fill="#FFFFFF" transform="translate(948,1112)"/>
<path d="M0 0 C1.32 0 2.64 0 4 0 C5.125 3.75 5.125 3.75 4 6 C2.68 6 1.36 6 0 6 C0 4.02 0 2.04 0 0 Z " fill="#FFFFFF" transform="translate(330,1100)"/>
</svg>
